<svg width="196" height="52" viewBox="0 0 196 52" fill="none" xmlns="http://www.w3.org/2000/svg">
<path d="M13.3418 8.08891H38.4147V43.9111H34.7343V27.5022H34.6981C34.2914 22.9672 30.4979 19.4133 25.8782 19.4133C21.2585 19.4133 17.465 22.9672 17.0583 27.5022H17.0222V43.9111H13.3418V8.08891Z" fill="white"/>
<path d="M6.6709 13.1733L8.16608 18.2578H9.4312V38.8267C8.796 38.8267 8.28108 39.344 8.28108 39.9822V41.3689H8.05102C7.41582 41.3689 6.9009 41.8863 6.9009 42.5245V43.9111H19.7824V42.5245C19.7824 41.8863 19.2675 41.3689 18.6323 41.3689H18.4022V39.9822C18.4022 39.344 17.8873 38.8267 17.2521 38.8267H15.8719V13.1733H6.6709Z" fill="white"/>
<path d="M34.9639 38.8267C34.3287 38.8267 33.8138 39.344 33.8138 39.9822V41.3689H33.5838C32.9486 41.3689 32.4336 41.8863 32.4336 42.5245V43.9111H45.3151V42.5245C45.3151 41.8863 44.8002 41.3689 44.165 41.3689H43.935V39.9822C43.935 39.344 43.42 38.8267 42.7848 38.8267V18.2578H44.05L45.5451 13.1733H36.3441V38.8267H34.9639Z" fill="white"/>
<path d="M174.243 36.7895V20.6222H177.92V23.3167H178.088C178.381 22.3835 178.884 21.6642 179.596 21.159C180.316 20.6468 181.137 20.3907 182.058 20.3907C182.268 20.3907 182.502 20.4012 182.76 20.4222C183.026 20.4363 183.246 20.4609 183.42 20.4959V24.0009C183.26 23.9448 183.005 23.8957 182.656 23.8536C182.313 23.8045 181.982 23.7799 181.66 23.7799C180.969 23.7799 180.347 23.9308 179.796 24.2325C179.251 24.5272 178.821 24.9377 178.507 25.464C178.193 25.9903 178.035 26.5972 178.035 27.2849V36.7895H174.243Z" fill="white"/>
<path d="M163.88 37.1053C162.266 37.1053 160.873 36.7685 159.7 36.0948C158.533 35.4142 157.636 34.4529 157.007 33.2108C156.379 31.9618 156.064 30.4917 156.064 28.8006C156.064 27.1375 156.379 25.678 157.007 24.422C157.643 23.1589 158.53 22.1765 159.668 21.4748C160.807 20.7661 162.144 20.4117 163.68 20.4117C164.673 20.4117 165.608 20.5731 166.488 20.8959C167.375 21.2117 168.157 21.7029 168.835 22.3695C169.519 23.0361 170.057 23.8852 170.448 24.9167C170.839 25.9411 171.035 27.1621 171.035 28.5796V29.7479H157.845V27.1797H167.4C167.393 26.4499 167.235 25.8008 166.928 25.2324C166.621 24.657 166.192 24.2044 165.64 23.8747C165.095 23.5448 164.459 23.3799 163.733 23.3799C162.958 23.3799 162.277 23.5694 161.69 23.9483C161.103 24.3202 160.646 24.8114 160.318 25.4219C159.996 26.0254 159.832 26.6885 159.826 27.4112V29.6532C159.826 30.5935 159.996 31.4004 160.338 32.0741C160.681 32.7407 161.159 33.2529 161.774 33.6108C162.389 33.9616 163.108 34.1371 163.932 34.1371C164.484 34.1371 164.983 34.0599 165.43 33.9055C165.877 33.7441 166.265 33.5091 166.593 33.2003C166.921 32.8916 167.169 32.5091 167.337 32.053L170.878 32.453C170.654 33.3933 170.228 34.2142 169.6 34.916C168.978 35.6106 168.182 36.151 167.211 36.5369C166.24 36.9158 165.13 37.1053 163.88 37.1053Z" fill="white"/>
<path d="M153.757 20.6222V23.5694H144.507V20.6222H153.757ZM146.79 16.7488H150.583V31.9267C150.583 32.439 150.66 32.8319 150.813 33.1055C150.974 33.3722 151.183 33.5547 151.442 33.6529C151.7 33.7511 151.987 33.8003 152.301 33.8003C152.538 33.8003 152.755 33.7827 152.95 33.7476C153.153 33.7125 153.306 33.681 153.411 33.6529L154.051 36.6316C153.848 36.7018 153.558 36.779 153.181 36.8632C152.811 36.9474 152.357 36.9965 151.819 37.0105C150.869 37.0386 150.014 36.8948 149.252 36.579C148.491 36.2562 147.887 35.758 147.44 35.0844C147 34.4107 146.784 33.5687 146.79 32.5582V16.7488Z" fill="white"/>
<path d="M142.249 24.8956L138.792 25.2745C138.694 24.9237 138.523 24.5939 138.278 24.2851C138.041 23.9764 137.719 23.7273 137.315 23.5378C136.909 23.3484 136.414 23.2536 135.827 23.2536C135.038 23.2536 134.374 23.4255 133.837 23.7694C133.306 24.1132 133.044 24.5588 133.05 25.1061C133.044 25.5762 133.215 25.9587 133.564 26.2534C133.92 26.5481 134.507 26.7902 135.324 26.9797L138.069 27.5691C139.591 27.8989 140.723 28.4217 141.463 29.1374C142.21 29.8531 142.588 30.7899 142.594 31.9478C142.588 32.9652 142.29 33.8634 141.704 34.6423C141.124 35.4142 140.318 36.0176 139.284 36.4527C138.25 36.8878 137.063 37.1053 135.722 37.1053C133.753 37.1053 132.167 36.6912 130.966 35.8633C129.764 35.0282 129.049 33.8669 128.818 32.3793L132.516 32.0214C132.684 32.7512 133.04 33.302 133.585 33.6739C134.13 34.0459 134.839 34.2318 135.712 34.2318C136.613 34.2318 137.335 34.0459 137.88 33.6739C138.432 33.302 138.708 32.8424 138.708 32.2951C138.708 31.832 138.53 31.4495 138.174 31.1478C137.824 30.8461 137.279 30.6145 136.539 30.4531L133.795 29.8742C132.251 29.5514 131.109 29.0076 130.369 28.2428C129.628 27.4709 129.262 26.4955 129.269 25.3166C129.262 24.3202 129.531 23.4571 130.076 22.7273C130.627 21.9905 131.392 21.4222 132.37 21.0222C133.354 20.6152 134.489 20.4117 135.774 20.4117C137.66 20.4117 139.144 20.8152 140.227 21.6222C141.316 22.4291 141.99 23.5203 142.249 24.8956Z" fill="white"/>
<path d="M117.221 37.1158C116.201 37.1158 115.283 36.9334 114.466 36.5685C113.656 36.1966 113.013 35.6492 112.538 34.9265C112.07 34.2037 111.836 33.3125 111.836 32.253C111.836 31.3408 112.004 30.5865 112.339 29.99C112.674 29.3935 113.132 28.9164 113.712 28.5585C114.291 28.2006 114.944 27.9305 115.671 27.748C116.404 27.5586 117.162 27.4217 117.944 27.3375C118.887 27.2393 119.652 27.1516 120.238 27.0744C120.825 26.9902 121.251 26.8639 121.516 26.6955C121.789 26.52 121.925 26.2499 121.925 25.885V25.8218C121.925 25.0289 121.691 24.4149 121.223 23.9799C120.755 23.5448 120.081 23.3273 119.201 23.3273C118.272 23.3273 117.535 23.5308 116.99 23.9378C116.453 24.3448 116.09 24.8254 115.901 25.3798L112.36 24.8746C112.639 23.8922 113.1 23.0712 113.743 22.4116C114.385 21.7449 115.171 21.2467 116.1 20.9169C117.029 20.5801 118.055 20.4117 119.18 20.4117C119.955 20.4117 120.727 20.5029 121.495 20.6854C122.264 20.8678 122.966 21.1696 123.601 21.5906C124.237 22.0046 124.746 22.5695 125.13 23.2852C125.522 24.001 125.717 24.8956 125.717 25.9692V36.7895H122.071V34.5686H121.946C121.715 35.0177 121.391 35.4387 120.971 35.8317C120.559 36.2176 120.039 36.5299 119.41 36.7685C118.789 37 118.059 37.1158 117.221 37.1158ZM118.206 34.316C118.967 34.316 119.627 34.1651 120.186 33.8634C120.745 33.5547 121.174 33.1477 121.474 32.6424C121.781 32.1372 121.935 31.5864 121.935 30.9899V29.0848C121.817 29.183 121.614 29.2742 121.327 29.3585C121.048 29.4427 120.734 29.5163 120.385 29.5795C120.036 29.6426 119.69 29.6988 119.348 29.7479C119.005 29.797 118.709 29.8391 118.457 29.8742C117.891 29.9514 117.385 30.0777 116.938 30.2531C116.491 30.4286 116.138 30.6742 115.88 30.9899C115.621 31.2987 115.492 31.6986 115.492 32.1898C115.492 32.8916 115.747 33.4213 116.257 33.7792C116.767 34.1371 117.416 34.316 118.206 34.316Z" fill="white"/>
<path d="M102.583 37.1053C100.977 37.1053 99.5969 36.7509 98.4448 36.0422C97.2994 35.3335 96.416 34.3546 95.7944 33.1055C95.1795 31.8495 94.8721 30.404 94.8721 28.769C94.8721 27.127 95.1868 25.678 95.8151 24.422C96.4439 23.1589 97.3305 22.1765 98.4764 21.4748C99.6284 20.7661 100.99 20.4117 102.562 20.4117C103.868 20.4117 105.023 20.6538 106.03 21.138C107.042 21.6151 107.849 22.2923 108.449 23.1694C109.05 24.0395 109.392 25.057 109.476 26.2218H105.852C105.705 25.4429 105.355 24.7939 104.804 24.2746C104.259 23.7483 103.529 23.4852 102.614 23.4852C101.839 23.4852 101.158 23.6957 100.571 24.1167C99.9845 24.5307 99.527 25.1272 99.1989 25.9061C98.8775 26.6849 98.717 27.6182 98.717 28.7059C98.717 29.8075 98.8775 30.7548 99.1989 31.5478C99.5203 32.3337 99.9706 32.9406 100.55 33.3687C101.137 33.7897 101.825 34.0002 102.614 34.0002C103.173 34.0002 103.672 33.895 104.112 33.6845C104.559 33.4669 104.933 33.1547 105.233 32.7477C105.534 32.3407 105.74 31.846 105.852 31.2636H109.476C109.385 32.4074 109.05 33.4213 108.47 34.3055C107.891 35.1826 107.102 35.8703 106.103 36.3685C105.104 36.8597 103.931 37.1053 102.583 37.1053Z" fill="white"/>
<path d="M84.5303 36.7895V20.6222H88.2075V23.3167H88.3752C88.6682 22.3835 89.1712 21.6642 89.8834 21.159C90.6028 20.6468 91.4237 20.3907 92.3454 20.3907C92.555 20.3907 92.789 20.4012 93.0472 20.4222C93.3128 20.4363 93.5327 20.4609 93.7077 20.4959V24.0009C93.5467 23.9448 93.292 23.8957 92.9427 23.8536C92.6006 23.8045 92.2688 23.7799 91.9474 23.7799C91.256 23.7799 90.6344 23.9308 90.0827 24.2325C89.5377 24.5272 89.1086 24.9377 88.7939 25.464C88.4798 25.9903 88.3224 26.5972 88.3224 27.2849V36.7895H84.5303Z" fill="white"/>
<path d="M72.2206 37.1158C71.201 37.1158 70.2829 36.9334 69.4657 36.5685C68.6557 36.1966 68.0129 35.6492 67.5378 34.9265C67.0699 34.2037 66.8359 33.3125 66.8359 32.253C66.8359 31.3408 67.0036 30.5865 67.339 29.99C67.6744 29.3935 68.1314 28.9164 68.7111 28.5585C69.2907 28.2006 69.9439 27.9305 70.6705 27.748C71.4039 27.5586 72.1616 27.4217 72.9437 27.3375C73.8867 27.2393 74.6511 27.1516 75.238 27.0744C75.8244 26.9902 76.2509 26.8639 76.5159 26.6955C76.7886 26.52 76.9247 26.2499 76.9247 25.885V25.8218C76.9247 25.0289 76.6908 24.4149 76.2229 23.9799C75.7545 23.5448 75.0807 23.3273 74.2008 23.3273C73.2718 23.3273 72.5353 23.5308 71.9903 23.9378C71.4526 24.3448 71.0892 24.8254 70.9009 25.3798L67.3597 24.8746C67.6392 23.8922 68.1003 23.0712 68.7426 22.4116C69.3854 21.7449 70.1711 21.2467 71.1001 20.9169C72.0286 20.5801 73.0555 20.4117 74.1801 20.4117C74.9549 20.4117 75.7266 20.5029 76.4952 20.6854C77.2632 20.8678 77.965 21.1696 78.6006 21.5906C79.2362 22.0046 79.746 22.5695 80.1305 23.2852C80.5213 24.001 80.7169 24.8956 80.7169 25.9692V36.7895H77.0712V34.5686H76.9454C76.7151 35.0177 76.3901 35.4387 75.9714 35.8317C75.5594 36.2176 75.0387 36.5299 74.4104 36.7685C73.7888 37 73.0591 37.1158 72.2206 37.1158ZM73.2056 34.316C73.9669 34.316 74.6268 34.1651 75.1857 33.8634C75.7442 33.5547 76.1738 33.1477 76.4739 32.6424C76.7814 32.1372 76.9351 31.5864 76.9351 30.9899V29.0848C76.8166 29.183 76.6137 29.2742 76.3275 29.3585C76.048 29.4427 75.7338 29.5163 75.3845 29.5795C75.0356 29.6426 74.6899 29.6988 74.3473 29.7479C74.0052 29.797 73.7086 29.8391 73.4571 29.8742C72.8914 29.9514 72.3847 30.0777 71.938 30.2531C71.4909 30.4286 71.1384 30.6742 70.8796 30.9899C70.6214 31.2987 70.4925 31.6986 70.4925 32.1898C70.4925 32.8916 70.7471 33.4213 71.2569 33.7792C71.7667 34.1371 72.4163 34.316 73.2056 34.316Z" fill="white"/>
<path d="M65.1671 20.6222V23.5694H55.6543V20.6222H65.1671ZM58.0325 36.7895V19.096C58.0325 18.0084 58.2561 17.1032 58.7032 16.3804C59.1571 15.6577 59.7648 15.1173 60.5261 14.7595C61.2874 14.4016 62.1321 14.2227 63.0611 14.2227C63.7179 14.2227 64.3007 14.2753 64.811 14.3805C65.3208 14.4858 65.6976 14.5805 65.9424 14.6648L65.1878 17.6119C65.0273 17.5628 64.8249 17.5137 64.5801 17.4646C64.3359 17.4084 64.0636 17.3804 63.7629 17.3804C63.0575 17.3804 62.5586 17.5523 62.2651 17.8961C61.9789 18.2329 61.8355 18.7171 61.8355 19.3486V36.7895H58.0325Z" fill="white"/>
</svg>
